<svg width="34" height="33" viewBox="0 0 34 33" fill="none" xmlns="http://www.w3.org/2000/svg">
<path fill-rule="evenodd" clip-rule="evenodd" d="M17 0C12.54 0 9.31753 0.15107 7.18007 0.307274C4.689 0.488411 2.7699 2.35112 2.58328 4.76897C2.47874 6.15411 2.40317 7.54116 2.35661 8.92927C1.09937 9.28347 0.119414 10.3395 0.0506586 11.7299C0.0159846 12.453 -0.000894305 13.1768 3.64848e-05 13.9006C3.64848e-05 14.6186 0.0151475 15.1994 0.0378141 15.668C0.102792 17.0364 1.08728 17.9803 2.29239 18.2531C2.31705 20.4163 2.37851 22.579 2.47674 24.7403C2.51777 25.6973 2.92784 26.6044 3.62563 27.2816C4.32342 27.9589 5.25797 28.3569 6.24393 28.3968C8.40255 28.4928 11.9476 28.6006 17 28.6006C22.0524 28.6006 25.5975 28.4928 27.7561 28.3968C28.742 28.3569 29.6766 27.9589 30.3744 27.2816C31.0722 26.6044 31.4822 25.6973 31.5233 24.7403C31.5935 23.2611 31.6691 21.1131 31.7076 18.2531C32.9127 17.9803 33.8972 17.0364 33.9629 15.6687C33.9856 15.1994 34 14.6179 34 13.9006C34.0009 13.1768 33.984 12.453 33.9493 11.7299C33.8813 10.3395 32.9006 9.28347 31.6441 8.92853C31.5966 7.54071 31.521 6.15392 31.4175 4.76897C31.2301 2.35112 29.311 0.488411 26.8199 0.307274C24.6825 0.15107 21.46 0 17 0ZM17 3.66675C12.7085 3.66675 9.9945 3.85522 8.60277 3.98942C8.03435 4.04178 7.50233 4.2842 7.09769 4.67521C6.69305 5.06621 6.44094 5.58152 6.38447 6.133C6.24242 7.46037 6.04522 10.0227 6.04522 14.059C6.04522 15.5617 6.06033 16.8692 6.083 17.9898C6.08894 18.2777 6.21095 18.5519 6.42285 18.7535C6.63476 18.955 6.91964 19.0679 7.21633 19.0678H26.7852C27.0819 19.0679 27.3668 18.955 27.5787 18.7535C27.7906 18.5519 27.9126 18.2777 27.9185 17.9898C27.9412 16.8692 27.9563 15.5617 27.9563 14.059C27.9563 10.0227 27.7598 7.46037 27.6163 6.133C27.5595 5.58178 27.3072 5.06682 26.9026 4.67611C26.498 4.2854 25.9662 4.0432 25.398 3.99089C24.0055 3.85522 21.2915 3.66675 17 3.66675ZM8.31113 23.8339C8.31113 23.5421 8.43053 23.2623 8.64307 23.056C8.85562 22.8497 9.14388 22.7338 9.44446 22.7338H11.7111C12.0117 22.7338 12.3 22.8497 12.5125 23.056C12.725 23.2623 12.8445 23.5421 12.8445 23.8339C12.8445 24.1256 12.725 24.4054 12.5125 24.6117C12.3 24.818 12.0117 24.9339 11.7111 24.9339H9.44446C9.14388 24.9339 8.85562 24.818 8.64307 24.6117C8.43053 24.4054 8.31113 24.1256 8.31113 23.8339ZM24.5555 22.7338C24.8561 22.7338 25.1444 22.8497 25.3569 23.056C25.5695 23.2623 25.6889 23.5421 25.6889 23.8339C25.6889 24.1256 25.5695 24.4054 25.3569 24.6117C25.1444 24.818 24.8561 24.9339 24.5555 24.9339H22.2889C21.9883 24.9339 21.7 24.818 21.4875 24.6117C21.275 24.4054 21.1555 24.1256 21.1555 23.8339C21.1555 23.5421 21.275 23.2623 21.4875 23.056C21.7 22.8497 21.9883 22.7338 22.2889 22.7338H24.5555ZM27.9344 29.8818C25.684 29.9667 23.4325 30.0208 21.1805 30.0439C21.1956 30.5293 21.213 30.9202 21.2288 31.2084C21.2742 32.04 21.9088 32.7558 22.7981 32.8753C23.2341 32.934 23.871 33 24.5555 33C25.2386 33 25.8762 32.934 26.3122 32.8753C26.7327 32.818 27.1194 32.6202 27.4059 32.316C27.6923 32.0117 27.8605 31.6201 27.8815 31.2084C27.8989 30.8887 27.9193 30.4428 27.9344 29.8818ZM12.8188 30.0439C10.5668 30.0209 8.31527 29.9671 6.06487 29.8825C6.07998 30.4428 6.10038 30.8887 6.11776 31.2084C6.16309 32.04 6.79776 32.7558 7.68704 32.8753C8.123 32.934 8.75993 33 9.44371 33C10.1275 33 10.7659 32.934 11.2011 32.8753C11.6216 32.818 12.0084 32.6202 12.2948 32.316C12.5812 32.0117 12.7494 31.6201 12.7704 31.2084C12.7863 30.9202 12.8044 30.5293 12.8188 30.0439Z" fill="#204383"/>
</svg>
