<svg width="14" height="15" viewBox="0 0 14 15" fill="none" xmlns="http://www.w3.org/2000/svg">
<path d="M0 5.10527C0 3.81484 -4.07821e-08 3.17032 0.400947 2.76937C0.801895 2.36842 1.44642 2.36842 2.73684 2.36842H10.9474C12.2378 2.36842 12.8823 2.36842 13.2833 2.76937C13.6842 3.17032 13.6842 3.81484 13.6842 5.10527C13.6842 5.42753 13.6842 5.589 13.5843 5.68958C13.4837 5.78948 13.3216 5.78948 13 5.78948H0.684211C0.361947 5.78948 0.200474 5.78948 0.0998947 5.68958C-6.11732e-08 5.589 0 5.42684 0 5.10527ZM0 11.2632C0 12.5536 -4.07821e-08 13.1981 0.400947 13.5991C0.801895 14 1.44642 14 2.73684 14H10.9474C12.2378 14 12.8823 14 13.2833 13.5991C13.6842 13.1981 13.6842 12.5536 13.6842 11.2632V7.84211C13.6842 7.51984 13.6842 7.35837 13.5843 7.25779C13.4837 7.1579 13.3216 7.1579 13 7.1579H0.684211C0.361947 7.1579 0.200474 7.1579 0.0998947 7.25779C-6.11732e-08 7.35837 0 7.52053 0 7.84211V11.2632Z" fill="#204383"/>
<path d="M3.42105 1V3.05263M10.2632 1V3.05263" stroke="#204383" stroke-width="2" stroke-linecap="round"/>
</svg>
