<svg width="22" height="22" viewBox="0 0 22 22" fill="none" xmlns="http://www.w3.org/2000/svg">
<path d="M9.8718 2.74154V7.11898C9.87089 7.66417 9.70878 8.19691 9.40585 8.6502C9.10293 9.10348 8.67272 9.45706 8.16935 9.66646C7.83638 9.80411 7.47929 9.87392 7.119 9.8718H2.74158C2.01345 9.86881 1.31616 9.57747 0.802345 9.06153C0.288531 8.5456 5.30477e-05 7.84712 5.91629e-05 7.11898V2.75282C5.30477e-05 2.02468 0.288531 1.32619 0.802345 0.810261C1.31616 0.29433 2.01345 0.00298419 2.74158 0H7.119C7.84713 -6.11508e-06 8.54562 0.288473 9.06155 0.80229C9.57747 1.31611 9.86882 2.0134 9.8718 2.74154ZM21.9999 2.75282V7.11898C22.0023 7.47946 21.9327 7.8368 21.7951 8.17002C21.6576 8.50324 21.4549 8.80565 21.1989 9.05949C20.9468 9.31853 20.645 9.52401 20.3115 9.66359C19.9781 9.80317 19.6199 9.87399 19.2584 9.8718H14.881C14.3371 9.87109 13.8055 9.70994 13.3527 9.40851C12.9 9.10708 12.5462 8.67877 12.3358 8.17723C12.1963 7.84197 12.1257 7.48208 12.1282 7.11898V2.75282C12.1273 2.39153 12.1987 2.03372 12.3382 1.70045C12.4777 1.36719 12.6825 1.06521 12.9405 0.812308C13.1942 0.555312 13.4963 0.351189 13.8294 0.211755C14.1625 0.0723209 14.5199 0.00034694 14.881 0H19.2584C19.9865 0.00298419 20.6838 0.29433 21.1977 0.810261C21.7115 1.32619 21.9999 2.02468 21.9999 2.75282ZM9.8718 14.8923V19.2585C9.86882 19.9866 9.57747 20.6839 9.06155 21.1977C8.54562 21.7115 7.84713 22 7.119 22H2.74158C2.01458 21.9986 1.3174 21.7108 0.801081 21.199C0.545109 20.9451 0.342403 20.6427 0.204853 20.3095C0.067302 19.9763 -0.00232381 19.619 5.91629e-05 19.2585V14.8923C-0.00232381 14.5318 0.067302 14.1745 0.204853 13.8413C0.342403 13.508 0.545109 13.2056 0.801081 12.9518C1.31512 12.4338 2.01186 12.138 2.74158 12.1282H7.119C7.8492 12.1341 8.54765 12.4276 9.06295 12.945C9.57824 13.4624 9.86886 14.1621 9.8718 14.8923ZM21.9999 17.0697C21.9977 18.0439 21.7069 18.9955 21.1643 19.8046C20.6218 20.6136 19.8516 21.2438 18.9512 21.6156C18.0508 21.9873 17.0604 22.084 16.1051 21.8934C15.1498 21.7028 14.2724 21.2335 13.5835 20.5447C12.8947 19.8558 12.4254 18.9784 12.2348 18.0231C12.0442 17.0677 12.1409 16.0774 12.5126 15.1769C12.8844 14.2765 13.5146 13.5064 14.3236 12.9638C15.1326 12.4212 16.0843 12.1304 17.0584 12.1282C18.036 12.1309 18.9909 12.4222 19.8036 12.9655C20.6162 13.5088 21.2504 14.28 21.6265 15.1823C21.8747 15.7802 22.0011 16.4222 21.9999 17.0697Z" fill="#204383"/>
</svg>
