<svg width="24" height="33" viewBox="0 0 24 33" fill="none" xmlns="http://www.w3.org/2000/svg">
<path d="M11.9254 21.311C11.1544 21.3124 10.4154 21.6172 9.87016 22.1587C9.32488 22.7002 9.01771 23.4343 9.01589 24.2003V30.1093C9.01589 30.876 9.32242 31.6112 9.86806 32.1533C10.4137 32.6954 11.1537 33 11.9254 33C12.697 33 13.4371 32.6954 13.9827 32.1533C14.5284 31.6112 14.8349 30.876 14.8349 30.1093V30.0503V30.053V24.2016C14.8334 23.4359 14.5268 22.7019 13.9821 22.1602C13.4374 21.6185 12.6989 21.3131 11.9282 21.311H11.9254Z" fill="#204383"/>
<path d="M22.4679 3.61131H16.8685C16.1902 1.50162 14.2339 0 11.924 0C9.61409 0 7.65922 1.50162 6.99056 3.57425L6.98089 3.61131H1.45475C1.06893 3.61131 0.698907 3.76358 0.426088 4.03464C0.153268 4.30569 0 4.67332 0 5.05665C0 5.43998 0.153268 5.80761 0.426088 6.07866C0.698907 6.34972 1.06893 6.502 1.45475 6.502H7.05411C7.42436 7.73596 8.22841 8.74619 9.28529 9.37896L9.30739 9.39132C5.34101 10.5814 2.49781 14.168 2.47294 18.4189V26.0066C2.47871 26.6369 2.73319 27.2398 3.18169 27.6857C3.63018 28.1315 4.23687 28.3847 4.87129 28.3908H6.83583V24.273C6.83583 22.9126 7.37976 21.6079 8.34797 20.646C9.31618 19.684 10.6294 19.1436 11.9986 19.1436C13.3679 19.1436 14.6811 19.684 15.6493 20.646C16.6175 21.6079 17.1614 22.9126 17.1614 24.273V28.3908H19.1246C19.7598 28.3865 20.3678 28.134 20.8171 27.6878C21.2664 27.2417 21.521 26.6377 21.5257 26.0066V18.493C21.5248 16.4668 20.8656 14.495 19.6461 12.871C18.4267 11.2469 16.7121 10.0573 14.7575 9.47916L14.6912 9.46269C15.7718 8.82259 16.5726 7.80428 16.9362 6.60769L16.9459 6.572H22.5452C22.9307 6.57091 23.3001 6.41829 23.5727 6.14747C23.8453 5.87665 23.9989 5.50965 24 5.12665C23.9847 4.7295 23.8191 4.35271 23.5363 4.07155C23.2536 3.79038 22.8745 3.62554 22.4748 3.60993H22.472L22.4679 3.61131ZM11.924 8.01597C11.3486 8.01597 10.786 7.84644 10.3076 7.5288C9.82911 7.21117 9.45619 6.75971 9.23598 6.2315C9.01577 5.7033 8.95815 5.12207 9.07041 4.56133C9.18268 4.0006 9.45978 3.48552 9.86668 3.08125C10.2736 2.67698 10.792 2.40167 11.3564 2.29013C11.9208 2.1786 12.5058 2.23584 13.0374 2.45463C13.5691 2.67342 14.0235 3.04393 14.3432 3.5193C14.6629 3.99467 14.8335 4.55356 14.8335 5.12528L14.8349 5.20764C14.8349 6.75867 13.5694 8.01597 12.0083 8.01597L11.9213 8.0146H11.9254L11.924 8.01597Z" fill="#204383"/>
</svg>
