<svg width="37" height="37" viewBox="0 0 37 37" fill="none" xmlns="http://www.w3.org/2000/svg">
<path d="M18.5 10C13.806 10 10 13.806 10 18.5C10 23.194 13.806 27 18.5 27C23.194 27 27 23.194 27 18.5C27 13.806 23.194 10 18.5 10ZM18.5 25.558C14.6029 25.558 11.442 22.3971 11.442 18.5C11.442 14.6029 14.6029 11.442 18.5 11.442C22.3971 11.442 25.558 14.6029 25.558 18.5C25.558 22.3971 22.3971 25.558 18.5 25.558ZM19.405 18.0598L18.9231 17.9479V15.3998C19.6441 15.4984 20.09 15.95 20.1658 16.504C20.1753 16.5799 20.2398 16.6349 20.3157 16.6349H21.1676C21.2568 16.6349 21.327 16.5571 21.3194 16.468C21.2037 15.2859 20.2304 14.527 18.9307 14.3961V13.7757C18.9307 13.6922 18.8624 13.6239 18.7789 13.6239H18.2458C18.1623 13.6239 18.094 13.6922 18.094 13.7757V14.4018C16.7507 14.5327 15.6996 15.2746 15.6996 16.6596C15.6996 17.9422 16.6444 18.5607 17.6367 18.7979L18.1054 18.9174V21.6249C17.2667 21.5129 16.7962 21.0652 16.6994 20.4618C16.6881 20.3897 16.6235 20.3366 16.5496 20.3366H15.673C15.5838 20.3366 15.5136 20.4125 15.5212 20.5017C15.6066 21.5452 16.3978 22.5052 18.0864 22.6286V23.2243C18.0864 23.3078 18.1547 23.3761 18.2382 23.3761H18.777C18.8605 23.3761 18.9288 23.3078 18.9288 23.2224L18.925 22.621C20.4106 22.4901 21.4731 21.6951 21.4731 20.2683C21.4712 18.9516 20.6345 18.3634 19.405 18.0598ZM18.1035 17.7525C17.9972 17.7221 17.908 17.6936 17.8189 17.6576C17.1776 17.4261 16.8797 17.0523 16.8797 16.5704C16.8797 15.8817 17.4015 15.489 18.1035 15.3998V17.7525ZM18.9231 21.6306V19.0939C18.9819 19.1109 19.035 19.1242 19.0901 19.1356C19.9875 19.4088 20.2892 19.7883 20.2892 20.3708C20.2892 21.1126 19.7314 21.5585 18.9231 21.6306Z" fill="#3FD83F"/>
</svg>
