<svg width="14" height="14" viewBox="0 0 14 14" fill="none" xmlns="http://www.w3.org/2000/svg">
<path fill-rule="evenodd" clip-rule="evenodd" d="M10.1111 9.33333C11.1269 9.33333 11.9918 9.98278 12.3122 10.8889H13.2222C13.4285 10.8889 13.6263 10.9708 13.7722 11.1167C13.9181 11.2626 14 11.4604 14 11.6667C14 11.8729 13.9181 12.0708 13.7722 12.2166C13.6263 12.3625 13.4285 12.4444 13.2222 12.4444H12.3122C12.1515 12.8999 11.8535 13.2942 11.4593 13.5732C11.0651 13.8521 10.594 14.0019 10.1111 14.0019C9.62818 14.0019 9.15714 13.8521 8.76291 13.5732C8.36869 13.2942 8.07069 12.8999 7.91 12.4444H0.777778C0.571498 12.4444 0.373667 12.3625 0.227806 12.2166C0.0819442 12.0708 0 11.8729 0 11.6667C0 11.4604 0.0819442 11.2626 0.227806 11.1167C0.373667 10.9708 0.571498 10.8889 0.777778 10.8889H7.91C8.07091 10.4338 8.36902 10.0398 8.76324 9.76116C9.15746 9.48255 9.62838 9.33308 10.1111 9.33333ZM10.1111 10.8889C9.90483 10.8889 9.707 10.9708 9.56114 11.1167C9.41528 11.2626 9.33333 11.4604 9.33333 11.6667C9.33333 11.8729 9.41528 12.0708 9.56114 12.2166C9.707 12.3625 9.90483 12.4444 10.1111 12.4444C10.3174 12.4444 10.5152 12.3625 10.6611 12.2166C10.8069 12.0708 10.8889 11.8729 10.8889 11.6667C10.8889 11.4604 10.8069 11.2626 10.6611 11.1167C10.5152 10.9708 10.3174 10.8889 10.1111 10.8889ZM3.88889 4.66667C4.34699 4.66661 4.79498 4.80139 5.17699 5.05423C5.55901 5.30706 5.85815 5.66675 6.03711 6.08845L6.08922 6.22222H13.2222C13.4205 6.22244 13.6111 6.29835 13.7553 6.43444C13.8994 6.57052 13.9862 6.75652 13.9978 6.95442C14.0094 7.15232 13.945 7.34718 13.8178 7.4992C13.6906 7.65122 13.5101 7.74892 13.3132 7.77233L13.2222 7.77778H6.09C5.9332 8.22133 5.64602 8.60715 5.26612 8.88465C4.88623 9.16215 4.43134 9.31837 3.96111 9.33284C3.49087 9.3473 3.02725 9.21933 2.63101 8.9657C2.23478 8.71208 1.92443 8.34464 1.74067 7.91156L1.68778 7.77778H0.777778C0.579538 7.77756 0.388864 7.70165 0.244714 7.56556C0.100563 7.42948 0.0138172 7.24348 0.00219946 7.04558C-0.0094183 6.84768 0.0549691 6.65282 0.182206 6.5008C0.309443 6.34878 0.489925 6.25108 0.686778 6.22767L0.777778 6.22222H1.68778C1.84869 5.7671 2.14679 5.37309 2.54101 5.09449C2.93523 4.81589 3.40616 4.66641 3.88889 4.66667ZM3.88889 6.22222C3.68261 6.22222 3.48478 6.30417 3.33892 6.45003C3.19306 6.59589 3.11111 6.79372 3.11111 7C3.11111 7.20628 3.19306 7.40411 3.33892 7.54997C3.48478 7.69583 3.68261 7.77778 3.88889 7.77778C4.09517 7.77778 4.293 7.69583 4.43886 7.54997C4.58472 7.40411 4.66667 7.20628 4.66667 7C4.66667 6.79372 4.58472 6.59589 4.43886 6.45003C4.293 6.30417 4.09517 6.22222 3.88889 6.22222ZM10.1111 3.20813e-07C11.1269 3.20813e-07 11.9918 0.649445 12.3122 1.55556H13.2222C13.4285 1.55556 13.6263 1.6375 13.7722 1.78336C13.9181 1.92922 14 2.12705 14 2.33333C14 2.53961 13.9181 2.73744 13.7722 2.88331C13.6263 3.02917 13.4285 3.11111 13.2222 3.11111H12.3122C12.1515 3.56653 11.8535 3.96089 11.4593 4.23983C11.0651 4.51878 10.594 4.66857 10.1111 4.66857C9.62818 4.66857 9.15714 4.51878 8.76291 4.23983C8.36869 3.96089 8.07069 3.56653 7.91 3.11111H0.777778C0.571498 3.11111 0.373667 3.02917 0.227806 2.88331C0.0819442 2.73744 0 2.53961 0 2.33333C0 2.12705 0.0819442 1.92922 0.227806 1.78336C0.373667 1.6375 0.571498 1.55556 0.777778 1.55556H7.91C8.07091 1.10043 8.36902 0.706422 8.76324 0.427822C9.15746 0.149221 9.62838 -0.000252747 10.1111 3.20813e-07ZM10.1111 1.55556C9.90483 1.55556 9.707 1.6375 9.56114 1.78336C9.41528 1.92922 9.33333 2.12705 9.33333 2.33333C9.33333 2.53961 9.41528 2.73744 9.56114 2.88331C9.707 3.02917 9.90483 3.11111 10.1111 3.11111C10.3174 3.11111 10.5152 3.02917 10.6611 2.88331C10.8069 2.73744 10.8889 2.53961 10.8889 2.33333C10.8889 2.12705 10.8069 1.92922 10.6611 1.78336C10.5152 1.6375 10.3174 1.55556 10.1111 1.55556Z" fill="#204383"/>
</svg>
