<svg width="22" height="22" viewBox="0 0 22 22" fill="none" xmlns="http://www.w3.org/2000/svg">
<path d="M11 0.5C12.9891 0.5 14.8972 1.28977 16.3037 2.69629C17.7102 4.10281 18.5 6.01088 18.5 8V8.5H21.5V15.5H18.5V16C18.5 17.1935 18.0256 18.3377 17.1816 19.1816C16.3377 20.0256 15.1935 20.5 14 20.5H13.5V21.5H8.5V18.5H13.5V19.5H14C14.9283 19.5 15.8182 19.131 16.4746 18.4746C17.131 17.8182 17.5 16.9283 17.5 16V8C17.5 6.27609 16.8157 4.62231 15.5967 3.40332C14.3777 2.18433 12.7239 1.5 11 1.5C9.27609 1.5 7.62231 2.18433 6.40332 3.40332C5.18433 4.62231 4.5 6.27609 4.5 8V15.5H0.5V8.5H3.5V8C3.5 6.01088 4.28977 4.10281 5.69629 2.69629C7.10281 1.28977 9.01088 0.5 11 0.5Z" fill="#204383" stroke="#204383"/>
</svg>
