<svg width="22" height="24" viewBox="0 0 22 24" fill="none" xmlns="http://www.w3.org/2000/svg">
<path d="M19.8 11.0291V4.36364C19.8 3.78498 19.5682 3.23003 19.1556 2.82086C18.7431 2.41169 18.1835 2.18182 17.6 2.18182H13.002C12.54 0.916364 11.33 0 9.9 0C8.47 0 7.26 0.916364 6.798 2.18182H2.2C0.99 2.18182 0 3.16364 0 4.36364V19.6364C0 20.215 0.231785 20.77 0.644365 21.1791C1.05694 21.5883 1.61652 21.8182 2.2 21.8182H8.921C10.307 23.1709 12.199 24 14.3 24C18.557 24 22 20.5855 22 16.3636C22 14.28 21.164 12.4036 19.8 11.0291ZM9.9 2.18182C10.505 2.18182 11 2.67273 11 3.27273C11 3.87273 10.505 4.36364 9.9 4.36364C9.295 4.36364 8.8 3.87273 8.8 3.27273C8.8 2.67273 9.295 2.18182 9.9 2.18182ZM3.3 6.54545H16.5V8.72727H3.3V6.54545ZM6.688 17.4545H3.3V15.2727H6.688C6.633 15.6327 6.6 15.9927 6.6 16.3636C6.6 16.7345 6.633 17.0945 6.688 17.4545ZM3.3 13.0909V10.9091H8.921C8.25 11.5309 7.744 12.2727 7.348 13.0909H3.3ZM14.3 21.8182C11.264 21.8182 8.8 19.3745 8.8 16.3636C8.8 13.3527 11.264 10.9091 14.3 10.9091C17.336 10.9091 19.8 13.3527 19.8 16.3636C19.8 19.3745 17.336 21.8182 14.3 21.8182ZM14.85 16.6364L17.996 18.48L17.171 19.8109L13.2 17.4545V12H14.85V16.6364Z" fill="#827F7F" fill-opacity="0.65"/>
</svg>
