<svg width="19" height="22" viewBox="0 0 19 22" fill="none" xmlns="http://www.w3.org/2000/svg">
<path d="M9.5 0C14.7468 0 19 4.18965 19 9.35804C19.0036 11.5716 18.2073 13.7142 16.7535 15.4022L16.7524 15.4028L16.7435 15.4132H16.7647L11.1267 21.3083C10.9178 21.5267 10.6657 21.7007 10.3859 21.8197C10.1062 21.9386 9.8047 22 9.5 22C9.19531 22 8.89383 21.9386 8.61409 21.8197C8.33434 21.7007 8.08224 21.5267 7.87327 21.3083L2.23531 15.4132H2.25654L2.24648 15.4022L2.23531 15.3885C1.87398 14.9669 1.55122 14.5147 1.27078 14.0371C0.435216 12.6153 -0.00323296 11.0009 1.79472e-05 9.35804C1.79472e-05 4.18965 4.25322 0 9.5 0ZM9.5 6.0552C8.61075 6.0552 7.75792 6.40318 7.12912 7.02258C6.50032 7.64198 6.14707 8.48207 6.14707 9.35804C6.14707 10.234 6.50032 11.0741 7.12912 11.6935C7.75792 12.3129 8.61075 12.6609 9.5 12.6609C10.3893 12.6609 11.2421 12.3129 11.8709 11.6935C12.4997 11.0741 12.8529 10.234 12.8529 9.35804C12.8529 8.48207 12.4997 7.64198 11.8709 7.02258C11.2421 6.40318 10.3893 6.0552 9.5 6.0552Z" fill="#827F7F" fill-opacity="0.65"/>
</svg>
