<svg width="21" height="31" viewBox="0 0 21 31" fill="none" xmlns="http://www.w3.org/2000/svg">
<path d="M10.4347 20.0194C9.76013 20.0207 9.11352 20.3071 8.63639 20.8158C8.15927 21.3245 7.8905 22.014 7.8889 22.7336V28.2845C7.8889 29.0047 8.15712 29.6954 8.63456 30.2046C9.11199 30.7139 9.75953 31 10.4347 31C11.1099 31 11.7575 30.7139 12.2349 30.2046C12.7123 29.6954 12.9805 29.0047 12.9805 28.2845V28.2291V28.2316V22.7349C12.9793 22.0156 12.711 21.326 12.2343 20.8171C11.7577 20.3083 11.1115 20.0214 10.4371 20.0194H10.4347Z" fill="#204383"/>
<path d="M19.6594 3.39244H14.76C14.1664 1.41061 12.4547 0 10.4335 0C8.41233 0 6.70182 1.41061 6.11674 3.35762L6.10828 3.39244H1.27291C0.935313 3.39244 0.611544 3.53549 0.372827 3.79011C0.13411 4.04474 0 4.39009 0 4.75019C0 5.11028 0.13411 5.45563 0.372827 5.71026C0.611544 5.96489 0.935313 6.10794 1.27291 6.10794H6.17235C6.49632 7.26712 7.19986 8.21612 8.12463 8.81054L8.14397 8.82214C4.67338 9.94006 2.18559 13.3093 2.16383 17.3026V24.4305C2.16887 25.0226 2.39155 25.5889 2.78398 26.0078C3.17641 26.4266 3.70726 26.6644 4.26238 26.6702H5.98135V22.8019C5.98135 21.524 6.45729 20.2984 7.30448 19.3947C8.15166 18.4911 9.30069 17.9834 10.4988 17.9834C11.6969 17.9834 12.8459 18.4911 13.6931 19.3947C14.5403 20.2984 15.0162 21.524 15.0162 22.8019V26.6702H16.734C17.2898 26.6661 17.8218 26.4289 18.215 26.0098C18.6081 25.5907 18.8308 25.0233 18.835 24.4305V17.3722C18.8342 15.4688 18.2574 13.6165 17.1904 12.0909C16.1233 10.5653 14.6231 9.44778 12.9128 8.90467L12.8548 8.88919C13.8003 8.28788 14.501 7.33129 14.8192 6.20722L14.8277 6.1737H19.7271C20.0644 6.17268 20.3876 6.0293 20.6261 5.77489C20.8646 5.52049 20.999 5.17573 21 4.81595C20.9866 4.44286 20.8417 4.08891 20.5943 3.82479C20.3469 3.56066 20.0152 3.40581 19.6654 3.39115H19.663L19.6594 3.39244ZM10.4335 7.53016C9.93 7.53016 9.43779 7.37089 9.01913 7.07251C8.60047 6.77413 8.27417 6.35003 8.08148 5.85383C7.88879 5.35764 7.83838 4.81165 7.93661 4.28489C8.03484 3.75814 8.27731 3.27428 8.63335 2.89451C8.98939 2.51474 9.44301 2.25612 9.93685 2.15134C10.4307 2.04656 10.9426 2.10034 11.4078 2.30586C11.8729 2.51139 12.2705 2.85945 12.5503 3.30601C12.83 3.75257 12.9793 4.27758 12.9793 4.81466L12.9805 4.89202C12.9805 6.34906 11.8732 7.53016 10.5073 7.53016L10.4311 7.52887H10.4347L10.4335 7.53016Z" fill="#204383"/>
</svg>
