<svg width="25" height="25" viewBox="0 0 25 25" fill="none" xmlns="http://www.w3.org/2000/svg">
<path d="M3.71229 21.25C3.3566 21.25 3.05867 21.13 2.81847 20.89C2.57828 20.65 2.45776 20.3533 2.45693 20C2.45609 19.6467 2.57661 19.35 2.81847 19.11C3.06034 18.87 3.35828 18.75 3.71229 18.75H4.96765V10C4.96765 8.27083 5.49072 6.73459 6.53686 5.39125C7.58299 4.04792 8.94297 3.1675 10.6168 2.75V1.875C10.6168 1.35417 10.8001 0.911669 11.1666 0.547503C11.5332 0.183336 11.9776 0.000836174 12.4998 2.84091e-06C13.0221 -0.000830492 13.4669 0.181669 13.8343 0.547503C14.2017 0.913336 14.3845 1.35584 14.3829 1.875V2.75C16.0567 3.16667 17.4167 4.04709 18.4628 5.39125C19.5089 6.73542 20.032 8.27167 20.032 10V18.75H21.2874C21.6431 18.75 21.9414 18.87 22.1824 19.11C22.4235 19.35 22.5436 19.6467 22.5427 20C22.5419 20.3533 22.4214 20.6504 22.1812 20.8912C21.941 21.1321 21.6431 21.2517 21.2874 21.25H3.71229ZM12.4998 25C11.8094 25 11.2185 24.7554 10.7273 24.2662C10.236 23.7771 9.98994 23.1883 9.9891 22.5H15.0106C15.0106 23.1875 14.7649 23.7762 14.2737 24.2662C13.7824 24.7562 13.1911 25.0008 12.4998 25ZM1.20157 10C0.845879 10 0.54794 9.86458 0.307747 9.59375C0.0675544 9.32292 -0.0320379 9.01042 0.0089706 8.65625C0.176352 7.09375 0.615729 5.64042 1.3271 4.29625C2.03847 2.95209 2.94861 1.78042 4.05752 0.781253C4.32951 0.552086 4.63833 0.447919 4.98397 0.468753C5.32962 0.489586 5.60663 0.645836 5.81502 0.937503C6.02341 1.22917 6.1071 1.54167 6.06609 1.875C6.02509 2.20834 5.86817 2.5 5.59533 2.75C4.77935 3.52084 4.10982 4.41667 3.58675 5.4375C3.06369 6.45833 2.71846 7.5625 2.55108 8.75C2.50923 9.10417 2.36278 9.40125 2.1117 9.64125C1.86063 9.88125 1.55725 10.0008 1.20157 10ZM23.7981 10C23.4424 10 23.139 9.88 22.888 9.64C22.6369 9.4 22.4904 9.10333 22.4486 8.75C22.2812 7.5625 21.936 6.45833 21.4129 5.4375C20.8898 4.41667 20.2203 3.52084 19.4043 2.75C19.1323 2.5 18.9754 2.20834 18.9336 1.875C18.8917 1.54167 18.9754 1.22917 19.1846 0.937503C19.3939 0.645836 19.6713 0.489586 20.0169 0.468753C20.3626 0.447919 20.671 0.552086 20.9421 0.781253C22.051 1.78125 22.9612 2.95292 23.6726 4.29625C24.3839 5.63959 24.8233 7.09292 24.9907 8.65625C25.0325 9.01042 24.9334 9.32292 24.6932 9.59375C24.453 9.86458 24.1546 10 23.7981 10Z" fill="#204383"/>
</svg>
