<svg width="22" height="22" viewBox="0 0 22 22" fill="none" xmlns="http://www.w3.org/2000/svg">
<path d="M19.9249 10.14C20.3098 10.6374 20.9723 10.7471 21.4719 10.3718C22.016 9.9587 22.1641 9.11977 21.8013 8.50005L20.0248 5.46469C19.9212 5.28763 19.7806 5.14008 19.614 5.03468L12.1933 0.338316C11.479 -0.112772 10.6092 -0.112772 9.89122 0.338316L2.47422 5.03047C2.27436 5.15694 2.11521 5.34244 2.00788 5.57009L0.212849 9.36007C-0.253489 10.3466 0.0722071 11.5733 0.938264 12.1045L2.15963 12.8507V15.0977C2.15963 16.0674 2.61856 16.9653 3.35878 17.4459L9.87271 21.649C10.5981 22.117 11.4827 22.117 12.2081 21.649L18.722 17.4459C19.466 16.9653 19.9212 16.0716 19.9212 15.0977V10.1442L19.9249 10.14ZM11.0423 9.72684L5.48691 6.21088L11.0423 2.69493L16.5976 6.21088L11.0423 9.72684ZM9.5063 11.8432L8.71797 13.7908L2.58155 10.0472L3.52163 8.05739L9.5063 11.8432Z" fill="#204383"/>
</svg>
