<svg width="30" height="30" viewBox="0 0 30 30" fill="none" xmlns="http://www.w3.org/2000/svg">
<path d="M14.4909 0.0496146C14.8263 -0.0165382 15.1725 -0.0165382 15.5094 0.0496146C15.8955 0.12346 16.2463 0.306533 16.5724 0.475762L16.654 0.518838L29.3769 7.10335C29.5647 7.20063 29.7221 7.34765 29.832 7.52835C29.9419 7.70904 30 7.91646 30 8.12795V20.2785C30 20.7139 30.0031 21.1754 29.8569 21.6047C29.7283 21.9786 29.5211 22.3206 29.2492 22.6077C28.9339 22.9369 28.5216 23.1477 28.1369 23.3462L28.04 23.3969L15.5309 29.8707C15.3669 29.9557 15.1849 30 15.0002 30C14.8154 30 14.6334 29.9557 14.4694 29.8707L1.96029 23.3969L1.86337 23.3462C1.47876 23.1477 1.06646 22.9369 0.751075 22.6077C0.479223 22.3206 0.272015 21.9786 0.143389 21.6047C-0.00276296 21.1739 -0.00122441 20.7124 0.000314037 20.277V8.12795C0.000296889 7.91646 0.0584043 7.70904 0.168288 7.52835C0.278171 7.34765 0.435603 7.20063 0.623384 7.10335L13.3448 0.518838L13.4263 0.4773C13.754 0.306533 14.1032 0.12346 14.4909 0.0496146ZM14.8386 2.35112C14.6924 2.42016 14.5477 2.49248 14.4048 2.56804L3.72028 8.09872L8.06946 10.2279L19.3863 4.53108L15.594 2.56804C15.451 2.49248 15.3064 2.42016 15.1602 2.35112L15.0709 2.31419M21.917 5.84029L10.671 11.5017L15.0002 13.6186L26.28 8.09872L21.917 5.84029ZM13.8463 26.9476V15.6248L9.23099 13.3648V14.9032C9.23099 15.2092 9.10942 15.5027 8.89303 15.7191C8.67665 15.9355 8.38317 16.0571 8.07715 16.0571C7.77114 16.0571 7.47765 15.9355 7.26127 15.7191C7.04488 15.5027 6.92332 15.2092 6.92332 14.9032V12.2356L2.30798 9.97715V20.1678C2.30798 20.4554 2.30798 20.6201 2.31567 20.7447L2.32952 20.8647C2.34942 20.9184 2.37916 20.968 2.41721 21.0108C2.4249 21.017 2.44952 21.037 2.51567 21.0754C2.62029 21.14 2.76644 21.2139 3.02028 21.3462L13.8463 26.9476Z" fill="#204383"/>
</svg>
