<svg width="22" height="21" viewBox="0 0 22 21" fill="none" xmlns="http://www.w3.org/2000/svg">
<path fill-rule="evenodd" clip-rule="evenodd" d="M6.11111 4.66667C6.11111 3.42899 6.62619 2.242 7.54303 1.36683C8.45988 0.491665 9.70339 0 11 0C12.2966 0 13.5401 0.491665 14.457 1.36683C15.3738 2.242 15.8889 3.42899 15.8889 4.66667C15.8889 5.90434 15.3738 7.09133 14.457 7.9665C13.5401 8.84167 12.2966 9.33333 11 9.33333C9.70339 9.33333 8.45988 8.84167 7.54303 7.9665C6.62619 7.09133 6.11111 5.90434 6.11111 4.66667ZM6.11111 11.6667C4.49034 11.6667 2.93596 12.2812 1.7899 13.3752C0.643847 14.4692 0 15.9529 0 17.5C0 18.4283 0.386309 19.3185 1.07394 19.9749C1.76158 20.6313 2.69421 21 3.66667 21H18.3333C19.3058 21 20.2384 20.6313 20.9261 19.9749C21.6137 19.3185 22 18.4283 22 17.5C22 15.9529 21.3562 14.4692 20.2101 13.3752C19.064 12.2812 17.5097 11.6667 15.8889 11.6667H6.11111Z" fill="#827F7F" fill-opacity="0.65"/>
</svg>
