<svg width="36" height="36" viewBox="0 0 36 36" fill="none" xmlns="http://www.w3.org/2000/svg">
<path fill-rule="evenodd" clip-rule="evenodd" d="M0 18C0 9.5148 0 5.2722 2.6352 2.6352C5.274 0 9.5148 0 18 0C26.4852 0 30.7278 0 33.363 2.6352C36 5.274 36 9.5148 36 18C36 26.4852 36 30.7278 33.363 33.363C30.7296 36 26.4852 36 18 36C9.5148 36 5.2722 36 2.6352 33.363C0 30.7296 0 26.4852 0 18ZM14.4072 6.7536C14.5845 6.75265 14.7598 6.7168 14.9233 6.64808C15.0867 6.57936 15.235 6.47913 15.3597 6.3531C15.4844 6.22707 15.583 6.07772 15.65 5.91357C15.717 5.74942 15.7509 5.57368 15.75 5.3964C15.7491 5.21912 15.7132 5.04375 15.6445 4.88033C15.5758 4.7169 15.4755 4.56861 15.3495 4.44391C15.2235 4.31922 15.0741 4.22058 14.91 4.15361C14.7458 4.08664 14.5701 4.05265 14.3928 4.0536C12.4452 4.0626 10.8288 4.1076 9.5094 4.338C8.1558 4.5756 6.9984 5.0256 6.0498 5.9292C5.2308 6.7086 4.6818 7.4988 4.3848 8.6346C4.1148 9.6624 4.0662 10.9296 4.0536 12.5892C4.05218 12.7665 4.0857 12.9423 4.15223 13.1066C4.21876 13.271 4.31701 13.4206 4.44137 13.547C4.56573 13.6733 4.71375 13.774 4.877 13.8431C5.04025 13.9123 5.21551 13.9486 5.3928 13.95C5.57008 13.9514 5.74591 13.9179 5.91024 13.8514C6.07458 13.7848 6.2242 13.6866 6.35056 13.5622C6.47692 13.4379 6.57755 13.2898 6.6467 13.1266C6.71586 12.9634 6.75218 12.7881 6.7536 12.6108C6.768 10.9026 6.8256 9.972 6.9966 9.3204C7.1406 8.775 7.3674 8.4024 7.9128 7.884C8.3484 7.47 8.9424 7.1784 9.9738 6.9984C11.0394 6.8112 12.4398 6.7644 14.4072 6.7536ZM21.6072 4.0536C21.2492 4.05169 20.905 4.19209 20.6505 4.44391C20.396 4.69574 20.2519 5.03836 20.25 5.3964C20.2481 5.75444 20.3885 6.09858 20.6403 6.3531C20.8921 6.60763 21.2348 6.75169 21.5928 6.7536C23.5602 6.7644 24.9606 6.8112 26.0262 6.9984C27.0576 7.1784 27.6516 7.47 28.0872 7.884C28.6326 8.4024 28.8612 8.775 29.0034 9.3204C29.1744 9.972 29.2338 10.9026 29.2464 12.6108C29.2493 12.9688 29.3942 13.3111 29.6494 13.5622C29.9046 13.8134 30.2492 13.9529 30.6072 13.95C30.9652 13.9471 31.3075 13.8022 31.5586 13.547C31.8098 13.2918 31.9493 12.9472 31.9464 12.5892C31.9338 10.9296 31.8852 9.6624 31.6152 8.6346C31.3164 7.5006 30.7692 6.7086 29.9502 5.9292C29.0016 5.0256 27.8442 4.5756 26.4906 4.338C25.1712 4.1076 23.5548 4.0626 21.6072 4.0536ZM5.4 16.65C5.04196 16.65 4.69858 16.7922 4.44541 17.0454C4.19223 17.2986 4.05 17.642 4.05 18C4.05 18.358 4.19223 18.7014 4.44541 18.9546C4.69858 19.2078 5.04196 19.35 5.4 19.35H30.6C30.958 19.35 31.3014 19.2078 31.5546 18.9546C31.8078 18.7014 31.95 18.358 31.95 18C31.95 17.642 31.8078 17.2986 31.5546 17.0454C31.3014 16.7922 30.958 16.65 30.6 16.65H5.4ZM6.7536 23.3892C6.75074 23.0312 6.60576 22.6889 6.35056 22.4378C6.09536 22.1866 5.75084 22.0471 5.3928 22.05C5.03476 22.0529 4.69252 22.1978 4.44137 22.453C4.19022 22.7082 4.05074 23.0528 4.0536 23.4108C4.0662 25.0722 4.1148 26.3376 4.3848 27.3654C4.6836 28.4994 5.2308 29.2914 6.0498 30.0708C6.9984 30.9744 8.1558 31.4244 9.5094 31.662C10.8288 31.8924 12.4452 31.9374 14.3928 31.9464C14.5701 31.9473 14.7458 31.9134 14.91 31.8464C15.0741 31.7794 15.2235 31.6808 15.3495 31.5561C15.4755 31.4314 15.5758 31.2831 15.6445 31.1197C15.7132 30.9562 15.7491 30.7809 15.75 30.6036C15.7509 30.4263 15.717 30.2506 15.65 30.0864C15.583 29.9223 15.4844 29.7729 15.3597 29.6469C15.235 29.5209 15.0867 29.4206 14.9233 29.3519C14.7598 29.2832 14.5845 29.2473 14.4072 29.2464C12.4398 29.2374 11.0394 29.1888 9.9738 29.0016C8.9424 28.8216 8.3484 28.5318 7.9128 28.116C7.3674 27.5976 7.1388 27.225 6.9966 26.6796C6.8256 26.0298 6.768 25.0974 6.7536 23.3892ZM31.9464 23.4108C31.9478 23.2335 31.9143 23.0577 31.8478 22.8934C31.7812 22.729 31.683 22.5794 31.5586 22.453C31.3075 22.1978 30.9652 22.0529 30.6072 22.05C30.2492 22.0471 29.9046 22.1866 29.6494 22.4378C29.3942 22.6889 29.2493 23.0312 29.2464 23.3892C29.232 25.0992 29.1744 26.0298 29.0034 26.6796C28.8594 27.225 28.6326 27.5976 28.0872 28.116C27.6516 28.53 27.0576 28.8216 26.0262 29.0016C24.9606 29.1888 23.5602 29.2356 21.5928 29.2464C21.4155 29.2473 21.2402 29.2832 21.0767 29.3519C20.9133 29.4206 20.765 29.5209 20.6403 29.6469C20.3885 29.9014 20.2481 30.2456 20.25 30.6036C20.2519 30.9616 20.396 31.3043 20.6505 31.5561C20.905 31.8079 21.2492 31.9483 21.6072 31.9464C23.5548 31.9374 25.1712 31.8924 26.4906 31.662C27.8442 31.4244 29.0016 30.9744 29.9502 30.0708C30.7692 29.2914 31.3182 28.5012 31.6152 27.3654C31.8852 26.3376 31.9338 25.0722 31.9464 23.4108Z" fill="#827F7F" fill-opacity="0.65"/>
</svg>
