<svg width="31" height="33" viewBox="0 0 31 33" fill="none" xmlns="http://www.w3.org/2000/svg">
<path d="M14.2083 17.1875H10.6562C10.5706 17.1875 10.4885 17.2237 10.4279 17.2882C10.3673 17.3526 10.3333 17.4401 10.3333 17.5312V22.6875C10.3333 22.8152 10.2999 22.9403 10.2369 23.0489C10.1738 23.1575 10.0836 23.2453 9.97631 23.3024C9.86903 23.3595 9.74894 23.3837 9.62948 23.3722C9.51003 23.3608 9.39594 23.3141 9.29998 23.2375L8.00832 22.1513C7.95097 22.1105 7.88354 22.0887 7.81457 22.0887C7.7456 22.0887 7.67817 22.1105 7.62082 22.1513L6.32916 23.2375C6.2332 23.3141 6.11911 23.3608 5.99966 23.3722C5.8802 23.3837 5.76011 23.3595 5.65283 23.3024C5.54556 23.2453 5.45533 23.1575 5.39228 23.0489C5.32922 22.9403 5.29582 22.8152 5.29582 22.6875V17.5312C5.29582 17.4401 5.2618 17.3526 5.20124 17.2882C5.14069 17.2237 5.05855 17.1875 4.97291 17.1875H1.29166C0.949094 17.1875 0.620554 17.3324 0.37832 17.5902C0.136086 17.8481 0 18.1978 0 18.5625L0 31.625C0 31.9897 0.136086 32.3394 0.37832 32.5973C0.620554 32.8551 0.949094 33 1.29166 33H14.2083C14.5509 33 14.8794 32.8551 15.1217 32.5973C15.3639 32.3394 15.5 31.9897 15.5 31.625V18.5625C15.5 18.1978 15.3639 17.8481 15.1217 17.5902C14.8794 17.3324 14.5509 17.1875 14.2083 17.1875ZM27.5125 11.495C27.4608 11.4649 27.4171 11.4214 27.3855 11.3685C27.3538 11.3156 27.3353 11.2551 27.3316 11.1925C27.3328 11.131 27.3488 11.0708 27.3783 11.0178C27.4077 10.9648 27.4495 10.9208 27.4995 10.89C28.3252 10.373 29.0097 9.63546 29.4854 8.75041C29.9612 7.86537 30.2116 6.86345 30.212 5.84375C30.1792 4.30488 29.5903 2.83875 28.5678 1.75032C27.5453 0.661899 26.1681 0.0349877 24.7225 0C23.7034 0.00948162 22.7064 0.317244 21.8407 0.889594C20.975 1.46194 20.2739 2.27682 19.8141 3.245C19.787 3.30392 19.7447 3.35335 19.692 3.38746C19.6394 3.42157 19.5787 3.43894 19.517 3.4375H17.4375C17.0949 3.4375 16.7664 3.58237 16.5241 3.84023C16.2819 4.09809 16.1458 4.44783 16.1458 4.8125C16.1458 5.17717 16.2819 5.52691 16.5241 5.78477C16.7664 6.04263 17.0949 6.1875 17.4375 6.1875H18.9616C19.0387 6.1902 19.1124 6.22218 19.1692 6.27767C19.2261 6.33315 19.2624 6.40847 19.2716 6.49C19.37 7.36632 19.6535 8.20754 20.1009 8.95054C20.5483 9.69353 21.148 10.319 21.855 10.78C21.9045 10.8137 21.945 10.8606 21.9722 10.9161C21.9994 10.9716 22.0124 11.0337 22.01 11.0963C22.0054 11.1586 21.9849 11.2184 21.9508 11.2693C21.9167 11.3202 21.8701 11.3602 21.8162 11.385C20.7036 11.9363 19.7615 12.8137 19.1004 13.9144C18.4393 15.0151 18.0865 16.2935 18.0833 17.6V21.725C18.0866 21.9062 18.1557 22.0791 18.2761 22.2072C18.3965 22.3354 18.5589 22.409 18.7291 22.4125H20.6666C20.7457 22.4156 20.821 22.4495 20.8782 22.5078C20.9353 22.5661 20.9704 22.6448 20.9766 22.7288L21.9583 32.1888C21.9771 32.3577 22.053 32.5137 22.1718 32.6275C22.2906 32.7414 22.4443 32.8053 22.6041 32.8075H26.4791C26.6398 32.8084 26.795 32.7454 26.9144 32.631C27.0338 32.5166 27.1089 32.3589 27.125 32.1888L28.0162 22.7563C28.0227 22.6699 28.0596 22.5894 28.1195 22.5308C28.1793 22.4721 28.2578 22.4397 28.3391 22.44H30.3541C30.5244 22.4365 30.6867 22.3629 30.8071 22.2347C30.9275 22.1066 30.9966 21.9337 30.9999 21.7525V17.6275C31.0048 16.3627 30.6818 15.121 30.0665 14.0391C29.4512 12.9571 28.5674 12.0768 27.5125 11.495ZM27.4091 6.1875C27.4515 6.17586 27.4959 6.17586 27.5383 6.1875C27.5479 6.2114 27.5528 6.23713 27.5528 6.26312C27.5528 6.28912 27.5479 6.31485 27.5383 6.33875C27.4009 6.99953 27.0628 7.59374 26.5764 8.02952C26.09 8.4653 25.4822 8.71841 24.8472 8.7497C24.2121 8.781 23.585 8.58876 23.0628 8.20268C22.5407 7.8166 22.1525 7.25819 21.9583 6.61375C21.9368 6.56908 21.9255 6.51959 21.9255 6.46938C21.9255 6.41916 21.9368 6.36967 21.9583 6.325C21.9864 6.28337 22.0232 6.24927 22.0658 6.22541C22.1084 6.20154 22.1556 6.18856 22.2037 6.1875H27.4091Z" fill="#204383"/>
</svg>
