<svg width="37" height="37" viewBox="0 0 37 37" fill="none" xmlns="http://www.w3.org/2000/svg">
<path d="M18.5 18.5006L26.573 13.8756M18.5 18.5006V27.7506M10.426 13.8756L14.463 16.1886L18.5 18.5006M26.573 13.8756C26.2929 13.3946 25.8911 12.9959 25.408 12.7196L22.75 11.1966M26.573 13.8756C26.848 14.3476 27 14.8906 27 15.4556V21.5456C26.9997 22.1015 26.8522 22.6475 26.5726 23.128C26.293 23.6086 25.8912 24.0066 25.408 24.2816L20.092 27.3276C19.6073 27.6051 19.0585 27.7509 18.5 27.7506M22.75 11.1966L20.092 9.67355C19.6074 9.39565 19.0586 9.24944 18.5 9.24944C17.9414 9.24944 17.3926 9.39565 16.908 9.67355L11.592 12.7196C11.1086 12.9958 10.7064 13.3945 10.426 13.8756C10.1468 14.3553 9.99985 14.9005 10 15.4556V21.5456C10 22.6756 10.607 23.7176 11.592 24.2816L16.908 27.3276C17.3927 27.6051 17.9415 27.7509 18.5 27.7506M14.463 16.1886L22.75 11.1966" stroke="#8881FC" stroke-width="1.5" stroke-linejoin="round"/>
</svg>
