<svg width="31" height="25" viewBox="0 0 31 25" fill="none" xmlns="http://www.w3.org/2000/svg">
<path d="M29.9647 10.8456L26.8849 5.63536C26.6595 5.25702 26.3427 4.94397 25.9648 4.72616C25.5869 4.50834 25.1606 4.39303 24.7265 4.39125H22.3085V4.02507C22.3085 3.49627 22.2061 2.97266 22.0072 2.48433C21.8083 1.996 21.5167 1.55257 21.1492 1.1795C20.4064 0.424578 19.4007 0.000508542 18.352 8.79856e-05H3.958C3.17459 -0.00520092 2.40744 0.228061 1.75476 0.67002C1.10208 1.11198 0.593543 1.74253 0.294248 2.48096C0.0962217 2.97051 -0.00378662 3.49551 0.000109615 4.02507V17.1986C0.000921692 17.8173 0.221492 18.4147 0.620986 18.8803C1.02048 19.3459 1.57184 19.6481 2.17299 19.7309C2.16626 19.8633 2.16626 19.9951 2.17299 20.1265C2.16786 20.7502 2.28629 21.3686 2.52117 21.9445C2.75604 22.5204 3.10254 23.0419 3.53986 23.4779C3.96901 23.9335 4.48269 24.2975 5.05103 24.5487C5.61936 24.7999 6.231 24.9333 6.85036 24.9412C8.08652 24.9297 9.26915 24.4251 10.145 23.5353C11.0201 22.6469 11.5173 21.4431 11.5292 20.1838C11.5366 20.0624 11.5366 19.9406 11.5292 19.8191H19.4724C19.465 19.9406 19.465 20.0624 19.4724 20.1838C19.467 20.8078 19.5854 21.4264 19.8203 22.0026C20.0551 22.5788 20.4017 23.1006 20.8392 23.5368C21.2687 23.9927 21.7829 24.3569 22.3517 24.6081C22.9206 24.8593 23.5328 24.9925 24.1526 25C25.3888 24.9886 26.5714 24.4839 27.4473 23.5941C28.3218 22.7055 28.8185 21.5017 28.83 20.2427C28.8375 20.1207 28.8375 19.9984 28.83 19.8765H29.9201C30.2045 19.8723 30.4761 19.7556 30.6777 19.5508C30.8792 19.3461 30.9948 19.0695 31 18.7794V14.55C31 13.2412 30.641 11.9589 29.9647 10.8456ZM9.35487 20.125C9.35529 20.4612 9.28924 20.794 9.16067 21.1035C9.03209 21.413 8.84362 21.6929 8.60654 21.9265C8.12686 22.3914 7.49044 22.6506 6.82874 22.6506C6.16704 22.6506 5.53061 22.3914 5.05093 21.9265C4.81712 21.6885 4.63197 21.4056 4.50624 21.0941C4.3805 20.7825 4.31667 20.4487 4.31847 20.1118C4.31169 19.7639 4.38063 19.4189 4.52033 19.1015C4.71065 18.6412 5.03795 18.253 5.45465 17.9883C5.88084 17.701 6.38287 17.5532 6.89362 17.5647C7.38097 17.5647 7.85678 17.7118 8.2605 17.9883C8.67431 18.2574 9.00017 18.6441 9.19771 19.1015C9.33901 19.4177 9.41398 19.7633 9.41254 20.1118L9.35487 20.125ZM14.0322 12.8074H6.83739C6.45648 12.807 6.0912 12.6529 5.82131 12.3788C5.55143 12.1046 5.39888 11.7327 5.39697 11.3442C5.39659 11.1515 5.43357 10.9606 5.50579 10.7825C5.578 10.6044 5.68403 10.4427 5.81776 10.3066C5.9515 10.1704 6.1103 10.0626 6.28504 9.98932C6.45978 9.91602 6.64701 9.87869 6.83595 9.87947H14.0322C14.4132 9.88024 14.7783 10.0347 15.0479 10.3091C15.3175 10.5836 15.4697 10.9557 15.4712 11.3442C15.4714 11.5367 15.4343 11.7275 15.362 11.9054C15.2897 12.0833 15.1836 12.2449 15.0499 12.3808C14.9162 12.5168 14.7575 12.6245 14.5828 12.6977C14.4082 12.7709 14.2211 12.8082 14.0322 12.8074ZM14.0322 7.77212H6.83739C6.45648 7.77174 6.0912 7.61764 5.82131 7.34348C5.55143 7.06932 5.39888 6.69738 5.39697 6.30889C5.39678 6.11631 5.4339 5.92559 5.5062 5.74768C5.57851 5.56978 5.68456 5.4082 5.81828 5.27223C5.95199 5.13626 6.11073 5.02858 6.28538 4.95538C6.46002 4.88217 6.64713 4.84488 6.83595 4.84566H14.0322C14.4129 4.84643 14.7778 5.0007 15.0474 5.27482C15.317 5.54893 15.4693 5.92065 15.4712 6.30889C15.4714 6.50147 15.4343 6.69219 15.362 6.8701C15.2897 7.048 15.1836 7.20958 15.0499 7.34555C14.9162 7.48152 14.7575 7.5892 14.5828 7.6624C14.4082 7.73561 14.2211 7.77289 14.0322 7.77212ZM26.6254 20.125C26.6257 20.4613 26.5594 20.7942 26.4305 21.1037C26.3017 21.4132 26.113 21.6931 25.8756 21.9265C25.396 22.3909 24.7599 22.6499 24.0986 22.6499C23.4372 22.6499 22.8011 22.3909 22.3215 21.9265C22.0874 21.6887 21.902 21.4058 21.776 21.0942C21.65 20.7827 21.586 20.4488 21.5876 20.1118C21.5814 19.5786 21.7488 19.0583 22.0634 18.6324C22.4181 18.1515 22.9271 17.8088 23.5024 17.6662H23.8628C23.9287 17.6502 23.9973 17.6502 24.0632 17.6662H24.3516C24.7885 17.7177 25.2052 17.8839 25.5599 18.15C25.916 18.4162 26.1943 18.775 26.3659 19.1897C26.5086 19.5059 26.5822 19.8515 26.5822 20.1985L26.6254 20.125Z" fill="#204383"/>
</svg>
