<svg width="26" height="25" viewBox="0 0 26 25" fill="none" xmlns="http://www.w3.org/2000/svg">
<path d="M10.2792 7.95902L11.003 10.5465C11.6846 12.984 12.0247 14.2035 13.0267 14.7576C14.0287 15.3132 15.3006 14.9854 17.8443 14.3326L20.5426 13.6382C23.0864 12.9854 24.3582 12.659 24.9373 11.6993C25.5163 10.7382 25.1762 9.51875 24.4932 7.08124L23.7708 4.49513C23.0892 2.05623 22.7477 0.836788 21.7471 0.28262C20.7436 -0.272936 19.4718 0.0548419 16.928 0.70901L14.2297 1.40068C11.686 2.05346 10.4141 2.38123 9.83649 3.34235C9.25748 4.30207 9.59758 5.52152 10.2792 7.95902Z" fill="#204383"/>
<path d="M0.0382092 3.12151C0.0752362 2.9896 0.138209 2.8662 0.223527 2.75836C0.308845 2.65051 0.414836 2.56035 0.535438 2.49302C0.65604 2.42568 0.788889 2.3825 0.926388 2.36594C1.06389 2.34938 1.20334 2.35977 1.33678 2.39651L3.73013 3.05207C4.36425 3.22269 4.9429 3.55257 5.40982 4.00963C5.87674 4.46669 6.21604 5.03538 6.39473 5.66041L9.41769 16.4743L9.63974 17.234C10.536 17.5605 11.2913 18.1819 11.7787 18.9938L12.2144 18.8604L24.6801 15.659C24.8141 15.6246 24.9536 15.6165 25.0907 15.6353C25.2279 15.6542 25.3599 15.6995 25.4793 15.7688C25.5987 15.838 25.7032 15.9298 25.7867 16.039C25.8702 16.1481 25.9311 16.2725 25.966 16.4049C26.0009 16.5373 26.009 16.6752 25.99 16.8107C25.9709 16.9463 25.9251 17.0767 25.855 17.1948C25.7849 17.3128 25.692 17.416 25.5815 17.4985C25.4711 17.581 25.3453 17.6412 25.2113 17.6757L12.792 20.8646L12.3282 21.0063C12.3198 22.7702 11.0873 24.384 9.22234 24.8618C6.98779 25.4368 4.69 24.1646 4.09131 22.0229C3.49262 19.8813 4.8193 17.6771 7.05385 17.1035C7.16534 17.0757 7.27636 17.0516 7.38692 17.0313L4.36255 6.21457C4.28077 5.93687 4.12784 5.68472 3.91857 5.48252C3.7093 5.28033 3.45076 5.13493 3.16798 5.06041L0.773221 4.40346C0.639771 4.36701 0.514897 4.30493 0.40573 4.22077C0.296563 4.13661 0.205243 4.03202 0.136987 3.91297C0.0687308 3.79392 0.0248757 3.66275 0.00792715 3.52695C-0.00902137 3.39115 0.00126864 3.25338 0.0382092 3.12151Z" fill="#204383"/>
</svg>
