<svg width="37" height="37" viewBox="0 0 37 37" fill="none" xmlns="http://www.w3.org/2000/svg">
<path d="M21.8158 18C21.2295 18 20.6673 17.6839 20.2527 17.1213C19.8382 16.5587 19.6053 15.7956 19.6053 15V11H13.7105C13.3197 11 12.9448 11.2107 12.6685 11.5858C12.3921 11.9609 12.2368 12.4696 12.2368 13V24C12.2368 24.5304 12.3921 25.0391 12.6685 25.4142C12.9448 25.7893 13.3197 26 13.7105 26H23.2895C23.6803 26 24.0552 25.7893 24.3315 25.4142C24.6079 25.0391 24.7632 24.5304 24.7632 24V18H21.8158ZM20.3421 15C20.3421 15.5304 20.4974 16.0391 20.7737 16.4142C21.0501 16.7893 21.4249 17 21.8158 17H24.4611L20.3421 11.41V15ZM13.7105 10H20.3421L25.5 17V24C25.5 24.7956 25.2671 25.5587 24.8526 26.1213C24.438 26.6839 23.8757 27 23.2895 27H13.7105C13.1243 27 12.562 26.6839 12.1474 26.1213C11.7329 25.5587 11.5 24.7956 11.5 24V13C11.5 12.2044 11.7329 11.4413 12.1474 10.8787C12.562 10.3161 13.1243 10 13.7105 10ZM13.7105 14H18.1316V15H13.7105V14ZM13.7105 18H18.1316V19H13.7105V18ZM13.7105 22H23.2895V23H13.7105V22Z" fill="#FF0000"/>
</svg>
