<svg width="35" height="33" viewBox="0 0 35 33" fill="none" xmlns="http://www.w3.org/2000/svg">
<path fill-rule="evenodd" clip-rule="evenodd" d="M20.0462 0.146614C22.0754 -0.337126 24.2715 0.381042 25.3892 2.22893C25.6762 2.70374 25.9908 3.25743 26.3238 3.89448C23.9869 3.74489 20.52 3.60349 15.7692 3.60349C13.0892 3.60349 10.8185 3.64815 8.92769 3.71513C12.4831 2.27879 16.3515 1.02628 20.0462 0.146614ZM5.04385 32.6941C7.33385 32.8474 10.85 33 15.7692 33C20.6885 33 24.2046 32.8474 26.4946 32.6941C29.0162 32.5252 31.0054 30.6721 31.2123 28.2125C31.2523 27.7426 31.2908 27.2189 31.3277 26.6414C30.6131 26.6615 29.7885 26.6742 28.8462 26.6742C27.5585 26.6742 26.4892 26.6504 25.6231 26.6169C22.8238 26.5082 20.5638 24.4341 20.4362 21.6552C20.4054 20.9757 20.3846 20.1712 20.3846 19.232C20.3846 18.2928 20.4054 17.4883 20.4362 16.8089C20.5638 14.03 22.8238 11.9566 25.6231 11.8472C26.6969 11.8073 27.7715 11.7882 28.8462 11.7899C29.7885 11.7899 30.6131 11.8025 31.3277 11.8226C31.2908 11.2446 31.2523 10.7212 31.2123 10.2523C31.0054 7.79194 29.0162 5.93884 26.4946 5.76991C24.2046 5.6166 20.6885 5.46403 15.7692 5.46403C10.85 5.46403 7.33385 5.6166 5.04385 5.76991C2.52231 5.93884 0.533077 7.79194 0.326154 10.2516C0.158462 12.2446 0 15.1946 0 19.232C0 23.2694 0.158462 26.2202 0.326154 28.2125C0.533077 30.6721 2.52231 32.5252 5.04385 32.6941ZM22.7415 21.5562C22.8146 23.1414 24.0777 24.3224 25.7154 24.3857C26.55 24.4185 27.5877 24.4415 28.8462 24.4415C30.1046 24.4415 31.1423 24.4185 31.9769 24.3857C33.6154 24.3224 34.8777 23.1414 34.9508 21.5562C34.98 20.911 35 20.1392 35 19.232C35 18.3248 34.98 17.5531 34.9508 16.9078C34.8777 15.3227 33.6146 14.1416 31.9769 14.0783C30.9338 14.0396 29.89 14.021 28.8462 14.0225C27.5877 14.0225 26.55 14.0456 25.7154 14.0783C24.0769 14.1416 22.8146 15.3227 22.7415 16.9078C22.7123 17.5531 22.6923 18.3241 22.6923 19.232C22.6923 20.14 22.7123 20.911 22.7415 21.5562ZM28.0769 17.3715C28.3829 17.3715 28.6764 17.4891 28.8928 17.6984C29.1092 17.9078 29.2308 18.1917 29.2308 18.4878V19.9762C29.2308 20.2723 29.1092 20.5562 28.8928 20.7656C28.6764 20.9749 28.3829 21.0926 28.0769 21.0926C27.7709 21.0926 27.4774 20.9749 27.261 20.7656C27.0446 20.5562 26.9231 20.2723 26.9231 19.9762V18.4878C26.9231 18.1917 27.0446 17.9078 27.261 17.6984C27.4774 17.4891 27.7709 17.3715 28.0769 17.3715Z" fill="#204383"/>
</svg>
